<?xml version="1.0" encoding="utf-8" ?><!DOCTYPE svg PUBLIC "-//W3C//DTD SVG 1.1//EN" "http://www.w3.org/Graphics/SVG/1.1/DTD/svg11.dtd" 
[ <!ATTLIST svg 
  xmlns:dsy CDATA #FIXED "http://www.3ds.com/print"  
    dsy:text-version CDATA #IMPLIED > 

  <!ATTLIST text 
  xmlns:dsy CDATA #FIXED "http://www.3ds.com/print" 
    dsy:text-version CDATA #IMPLIED > 
]><svg xmlns="http://www.w3.org/2000/svg" xmlns:dsy="http://www.3ds.com/print" dsy:text-version="18000" width="297" height="210" viewBox="0 0 297 210" version="1.1"><g stroke="rgb(128, 0, 255)" stroke-width="0.13" stroke-linecap="butt" stroke-linejoin="miter" fill="none"><path d="M 98.0875 135.767 L 80.9006 145.69"/><path d="M 157.767 170.224 L 140.58 180.146"/><path d="M 161.231 164.958 L 167.165 161.532"/><path d="M 161.231 99.6378 L 167.165 96.212"/></g><g stroke="rgb(0, 0, 0)" stroke-width="0.35" stroke-linecap="butt" stroke-linejoin="miter" fill="none"><path d="M 159.499 48.8612 L 159.499 80.2363"/><path d="M 145.282 108.519 L 118.138 124.191"/><path d="M 116.858 112.605 A 0.5 0.288681 -240 1 0 117.358 111.739"/><path d="M 117.358 111.739 A 0.5 0.288681 -240 0 0 116.754 112.376"/><path d="M 116.754 112.376 A 0.5 0.288681 -240 0 0 116.858 112.605"/><path d="M 126.687 112.887 A 0.5 0.288681 -240 0 0 127.187 112.021"/><path d="M 127.187 112.021 A 0.5 0.288681 -240 0 0 126.584 112.658"/><path d="M 126.584 112.658 A 0.5 0.288681 -240 0 0 126.687 112.887"/><path d="M 132.238 110.461 A 0.5 0.288681 -240 1 0 132.738 109.595"/><path d="M 132.738 109.595 A 0.5 0.288681 -240 0 0 132.134 110.232"/><path d="M 132.134 110.232 A 0.5 0.288681 -240 0 0 132.238 110.461"/><path d="M 137.788 106.478 A 0.5 0.288681 -240 1 0 138.288 105.612"/><path d="M 138.288 105.612 A 0.5 0.288681 -240 0 0 137.685 106.249"/><path d="M 137.685 106.249 A 0.5 0.288681 -240 0 0 137.788 106.478"/><path d="M 155.262 73.6147 A 0.5 0.288681 -240 1 0 155.762 72.7486"/><path d="M 155.762 72.7486 A 0.5 0.288681 -240 0 0 155.158 73.3858"/><path d="M 155.158 73.3858 A 0.5 0.288681 -240 0 0 155.262 73.6147"/><path d="M 153.924 61.6624 A 0.5 0.288681 -240 1 0 154.424 60.7964"/><path d="M 154.424 60.7964 A 0.5 0.288681 -240 0 0 153.82 61.4335"/><path d="M 153.82 61.4335 A 0.5 0.288681 -240 0 0 153.924 61.6624"/><path d="M 147.618 54.754 A 0.5 0.288681 -240 0 0 148.118 53.8879"/><path d="M 148.118 53.8879 A 0.5 0.288681 -240 0 0 147.514 54.5251"/><path d="M 147.514 54.5251 A 0.5 0.288681 -240 0 0 147.618 54.754"/><path d="M 147.488 57.2661 A 30 17.3205 -60 0 0 132.321 58.8488"/><path d="M 153.701 70.999 A 30 17.3205 -60 0 0 147.488 57.2661"/><path d="M 152.515 79.7604 A 30 17.3205 -60 0 0 153.701 70.999"/><path d="M 117.487 109.227 A 30 17.3205 -60 0 0 140.512 101.289"/><path d="M 111.489 98.8422 A 30 17.3205 -60 0 0 117.487 109.227"/><path d="M 137.687 54.2902 A 0.5 0.288681 -240 0 0 137.788 54.472"/><path d="M 137.788 54.472 A 0.5 0.288681 -240 0 0 138.39 53.8743"/><path d="M 143.016 53.7431 A 0.5 0.288681 -240 1 0 143.516 52.8771"/><path d="M 143.516 52.8771 A 0.5 0.288681 -240 0 0 142.913 53.5142"/><path d="M 142.913 53.5142 A 0.5 0.288681 -240 0 0 143.016 53.7431"/><path d="M 151.325 57.4459 A 0.5 0.288681 -240 1 0 151.825 56.5798"/><path d="M 151.825 56.5798 A 0.5 0.288681 -240 0 0 151.222 57.217"/><path d="M 151.222 57.217 A 0.5 0.288681 -240 0 0 151.325 57.4459"/><path d="M 155.262 67.1585 A 0.5 0.288681 -240 1 0 155.762 66.2924"/><path d="M 155.762 66.2924 A 0.5 0.288681 -240 0 0 155.158 66.9296"/><path d="M 155.158 66.9296 A 0.5 0.288681 -240 0 0 155.262 67.1585"/><path d="M 154.527 79.9965 A 0.5 0.288681 -240 0 0 154.424 79.7898"/><path d="M 154.424 79.7898 A 0.5 0.288681 -240 0 0 154.019 79.9449"/><path d="M 121.46 113.616 A 0.5 0.288681 -240 1 0 121.96 112.75"/><path d="M 121.96 112.75 A 0.5 0.288681 -240 0 0 121.356 113.387"/><path d="M 121.356 113.387 A 0.5 0.288681 -240 0 0 121.46 113.616"/><path d="M 113.15 109.913 A 0.5 0.288681 -240 1 0 113.65 109.047"/><path d="M 113.65 109.047 A 0.5 0.288681 -240 0 0 113.047 109.684"/><path d="M 113.047 109.684 A 0.5 0.288681 -240 0 0 113.15 109.913"/><path d="M 150.873 69.366 A 30 17.3205 -60 0 0 146.007 56.5649"/><path d="M 149.389 79.2229 A 30 17.3205 -60 0 0 150.873 69.366"/><path d="M 116.14 108.295 A 30 17.3205 -60 0 0 138.44 98.8416"/><path d="M 172.992 141.118 A 30 17.3205 -240 0 0 202.858 89.388"/><path d="M 216.351 67.8147 L 216.351 133.134"/><path d="M 216.351 133.134 L 162.328 164.325"/><path d="M 162.328 164.325 L 162.328 99.0049"/><path d="M 174.339 142.05 A 30 17.3205 -240 0 0 204.34 90.0892"/><path d="M 204.34 90.0892 A 30 17.3205 -240 0 0 168.126 128.317"/><path d="M 168.126 128.317 A 30 17.3205 -240 0 0 174.339 142.05"/><path d="M 162.328 99.0049 L 216.351 67.8147"/><path d="M 162.328 99.0049 L 162.328 164.325"/><path d="M 116.141 89.388 A 30 17.3205 -120 0 0 146.007 141.118"/><path d="M 99.8195 66.1817 L 159.499 100.638"/><path d="M 162.328 99.0049 L 159.499 100.638"/><path d="M 159.499 100.638 L 159.499 165.958"/><path d="M 162.328 164.325 L 159.499 165.958"/><path d="M 159.499 165.958 L 99.8195 131.501"/><path d="M 99.8195 131.501 L 99.8195 66.1817"/><path d="M 114.66 90.0885 A 30 17.3205 -120 0 0 144.659 142.051"/><path d="M 144.659 142.051 A 30 17.3205 -120 0 0 129.659 91.5747"/><path d="M 129.659 91.5747 A 30 17.3205 -120 0 0 114.66 90.0885"/><path d="M 101.659 82.8221 A 0.660004 0.381058 -120 0 0 101.885 83.2125"/><path d="M 101.659 99.1521 A 0.660004 0.381058 -120 0 0 101.885 99.5424"/><path d="M 101.659 115.482 A 0.660004 0.381058 -120 0 0 101.885 115.872"/><path d="M 158.511 107.48 A 0.660004 0.381058 -120 0 0 158.736 107.871"/><path d="M 158.511 115.645 A 0.660004 0.381058 -120 0 0 158.736 116.036"/><path d="M 158.511 123.81 A 0.660004 0.381058 -120 0 0 158.736 124.201"/><path d="M 158.511 131.975 A 0.660004 0.381058 -120 0 0 158.736 132.366"/><path d="M 158.511 140.14 A 0.660004 0.381058 -120 0 0 158.736 140.531"/><path d="M 158.511 156.47 A 0.660004 0.381058 -120 0 0 158.736 156.86"/><path d="M 158.511 148.305 A 0.660004 0.381058 -120 0 0 158.736 148.696"/><path d="M 101.659 123.647 A 0.660004 0.381058 -120 0 0 101.885 124.037"/><path d="M 101.659 107.317 A 0.660004 0.381058 -120 0 0 101.885 107.707"/><path d="M 101.659 90.9871 A 0.660004 0.381058 -120 0 0 101.885 91.3774"/><path d="M 101.659 74.6571 A 0.660004 0.381058 -120 0 0 101.885 75.0475"/><path d="M 100.684 82.3755 A 1.10001 0.635086 -120 0 0 101.784 84.2808"/><path d="M 101.784 84.2808 A 1.10001 0.635086 -120 0 0 101.234 82.43"/><path d="M 101.234 82.43 A 1.10001 0.635086 -120 0 0 100.684 82.3755"/><path d="M 100.684 98.7054 A 1.10001 0.635086 -120 0 0 101.784 100.611"/><path d="M 101.784 100.611 A 1.10001 0.635086 -120 0 0 101.234 98.7599"/><path d="M 101.234 98.7599 A 1.10001 0.635086 -120 0 0 100.684 98.7054"/><path d="M 100.684 115.035 A 1.10001 0.635086 -120 0 0 101.784 116.941"/><path d="M 101.784 116.941 A 1.10001 0.635086 -120 0 0 101.234 115.09"/><path d="M 101.234 115.09 A 1.10001 0.635086 -120 0 0 100.684 115.035"/><path d="M 157.535 107.034 A 1.10001 0.635086 -120 0 0 158.635 108.939"/><path d="M 158.635 108.939 A 1.10001 0.635086 -120 0 0 158.085 107.088"/><path d="M 158.085 107.088 A 1.10001 0.635086 -120 0 0 157.535 107.034"/><path d="M 157.535 115.199 A 1.10001 0.635086 -120 0 0 158.635 117.104"/><path d="M 158.635 117.104 A 1.10001 0.635086 -120 0 0 158.085 115.253"/><path d="M 158.085 115.253 A 1.10001 0.635086 -120 0 0 157.535 115.199"/><path d="M 157.535 123.364 A 1.10001 0.635086 -120 0 0 158.635 125.269"/><path d="M 158.635 125.269 A 1.10001 0.635086 -120 0 0 158.085 123.418"/><path d="M 158.085 123.418 A 1.10001 0.635086 -120 0 0 157.535 123.364"/><path d="M 157.535 131.529 A 1.10001 0.635086 -120 0 0 158.635 133.434"/><path d="M 158.635 133.434 A 1.10001 0.635086 -120 0 0 158.085 131.583"/><path d="M 158.085 131.583 A 1.10001 0.635086 -120 0 0 157.535 131.529"/><path d="M 157.535 139.694 A 1.10001 0.635086 -120 0 0 158.635 141.599"/><path d="M 158.635 141.599 A 1.10001 0.635086 -120 0 0 158.085 139.748"/><path d="M 158.085 139.748 A 1.10001 0.635086 -120 0 0 157.535 139.694"/><path d="M 157.535 156.023 A 1.10001 0.635086 -120 1 0 158.635 157.929"/><path d="M 158.635 157.929 A 1.10001 0.635086 -120 0 0 158.085 156.078"/><path d="M 158.085 156.078 A 1.10001 0.635086 -120 0 0 157.535 156.023"/><path d="M 157.535 147.859 A 1.10001 0.635086 -120 1 0 158.635 149.764"/><path d="M 158.635 149.764 A 1.10001 0.635086 -120 0 0 158.085 147.913"/><path d="M 158.085 147.913 A 1.10001 0.635086 -120 0 0 157.535 147.859"/><path d="M 100.684 123.2 A 1.10001 0.635086 -120 0 0 101.784 125.106"/><path d="M 101.784 125.106 A 1.10001 0.635086 -120 0 0 101.234 123.255"/><path d="M 101.234 123.255 A 1.10001 0.635086 -120 0 0 100.684 123.2"/><path d="M 100.684 106.87 A 1.10001 0.635086 -120 0 0 101.784 108.776"/><path d="M 101.784 108.776 A 1.10001 0.635086 -120 0 0 101.234 106.925"/><path d="M 101.234 106.925 A 1.10001 0.635086 -120 0 0 100.684 106.87"/><path d="M 100.684 90.5405 A 1.10001 0.635086 -120 0 0 101.784 92.4457"/><path d="M 101.784 92.4457 A 1.10001 0.635086 -120 0 0 101.234 90.5949"/><path d="M 101.234 90.5949 A 1.10001 0.635086 -120 0 0 100.684 90.5405"/><path d="M 100.684 74.2105 A 1.10001 0.635086 -120 0 0 101.784 76.1158"/><path d="M 101.784 76.1158 A 1.10001 0.635086 -120 0 0 101.234 74.265"/><path d="M 101.234 74.265 A 1.10001 0.635086 -120 0 0 100.684 74.2105"/><path d="M 101.308 82.4771 A 1.10001 0.635086 -120 0 0 102.008 83.6894"/><path d="M 101.308 98.807 A 1.10001 0.635086 -120 0 0 102.008 100.019"/><path d="M 101.308 115.137 A 1.10001 0.635086 -120 0 0 102.008 116.349"/><path d="M 158.159 107.135 A 1.10001 0.635086 -120 0 0 158.859 108.348"/><path d="M 158.159 115.3 A 1.10001 0.635086 -120 0 0 158.859 116.513"/><path d="M 158.159 123.465 A 1.10001 0.635086 -120 0 0 158.859 124.678"/><path d="M 158.159 131.63 A 1.10001 0.635086 -120 0 0 158.859 132.843"/><path d="M 158.159 139.795 A 1.10001 0.635086 -120 0 0 158.859 141.008"/><path d="M 158.159 156.125 A 1.10001 0.635086 -120 0 0 158.859 157.337"/><path d="M 158.159 147.96 A 1.10001 0.635086 -120 0 0 158.859 149.172"/><path d="M 101.308 123.302 A 1.10001 0.635086 -120 0 0 102.008 124.514"/><path d="M 101.308 106.972 A 1.10001 0.635086 -120 0 0 102.008 108.184"/><path d="M 101.308 90.642 A 1.10001 0.635086 -120 0 0 102.008 91.8544"/><path d="M 101.308 74.3121 A 1.10001 0.635086 -120 0 0 102.008 75.5245"/><path d="M 176.968 115.295 A 0.5 0.288681 -0 1 0 175.968 115.295"/><path d="M 175.968 115.295 A 0.5 0.288681 -0 0 0 176.114 115.5"/><path d="M 176.114 115.5 A 0.5 0.288681 -0 0 0 176.968 115.295"/><path d="M 99.8195 131.501 L 159.499 165.958"/><path d="M 159.499 165.958 L 219.179 131.501"/><path d="M 145.538 114.233 A 0.5 0.288681 -0 1 0 146.538 114.233"/><path d="M 146.538 114.233 A 0.5 0.288681 -0 0 0 146.391 114.029"/><path d="M 146.391 114.029 A 0.5 0.288681 -0 0 0 145.538 114.233"/><path d="M 138.771 116.594 A 0.5 0.288681 -0 1 0 139.771 116.594"/><path d="M 139.771 116.594 A 0.5 0.288681 -0 0 0 139.625 116.39"/><path d="M 139.625 116.39 A 0.5 0.288681 -0 0 0 138.771 116.594"/><path d="M 133.18 119.823 A 0.5 0.288681 -0 1 0 134.18 119.823"/><path d="M 134.18 119.823 A 0.5 0.288681 -0 0 0 134.033 119.618"/><path d="M 134.033 119.618 A 0.5 0.288681 -0 0 0 133.18 119.823"/><path d="M 129.089 123.729 A 0.5 0.288681 -0 1 0 130.089 123.729"/><path d="M 130.089 123.729 A 0.5 0.288681 -0 0 0 129.943 123.525"/><path d="M 129.943 123.525 A 0.5 0.288681 -0 0 0 129.089 123.729"/><path d="M 126.737 128.088 A 0.5 0.288681 -0 1 0 127.737 128.088"/><path d="M 127.737 128.088 A 0.5 0.288681 -0 0 0 127.59 127.884"/><path d="M 127.59 127.884 A 0.5 0.288681 -0 0 0 126.737 128.088"/><path d="M 126.259 132.645 A 0.5 0.288681 -0 1 0 127.259 132.645"/><path d="M 127.259 132.645 A 0.5 0.288681 -0 0 0 127.113 132.441"/><path d="M 127.113 132.441 A 0.5 0.288681 -0 0 0 126.259 132.645"/><path d="M 191.262 134.915 A 0.5 0.288681 -0 0 0 191.689 135.201"/><path d="M 192.186 134.762 A 0.5 0.288681 -0 0 0 192.116 134.711"/><path d="M 192.116 134.711 A 0.5 0.288681 -0 0 0 191.262 134.915"/><path d="M 191.74 130.358 A 0.5 0.288681 -0 1 0 192.74 130.358"/><path d="M 192.74 130.358 A 0.5 0.288681 -0 0 0 192.593 130.154"/><path d="M 192.593 130.154 A 0.5 0.288681 -0 0 0 191.74 130.358"/><path d="M 190.314 125.868 A 0.5 0.288681 -0 1 0 191.314 125.868"/><path d="M 191.314 125.868 A 0.5 0.288681 -0 0 0 191.168 125.663"/><path d="M 191.168 125.663 A 0.5 0.288681 -0 0 0 190.314 125.868"/><path d="M 187.069 121.705 A 0.5 0.288681 -0 1 0 188.069 121.705"/><path d="M 188.069 121.705 A 0.5 0.288681 -0 0 0 187.923 121.5"/><path d="M 187.923 121.5 A 0.5 0.288681 -0 0 0 187.069 121.705"/><path d="M 182.192 118.111 A 0.5 0.288681 -0 1 0 183.192 118.111"/><path d="M 183.192 118.111 A 0.5 0.288681 -0 0 0 183.046 117.907"/><path d="M 183.046 117.907 A 0.5 0.288681 -0 0 0 182.192 118.111"/><path d="M 190.499 131.501 A 31 17.8979 -180 0 0 170.812 114.838"/><path d="M 188.671 137.557 A 31 17.8979 -180 0 0 190.499 131.501"/><path d="M 128.499 131.502 A 31 17.8979 -180 0 0 130.328 137.557"/><path d="M 148.187 114.838 A 31 17.8979 -180 0 0 128.499 131.502"/><path d="M 219.179 131.501 L 219.179 134.767"/><path d="M 99.8195 131.501 L 99.8195 134.767"/><path d="M 99.8195 134.767 L 159.499 169.224"/><path d="M 159.499 165.958 L 159.499 169.224"/><path d="M 159.499 169.224 L 219.179 134.767"/><path d="M 190.37 133.135 A 31 17.8979 -180 0 0 169.779 117.882"/><path d="M 149.219 117.882 A 31 17.8979 -180 0 0 128.629 133.135"/><path d="M 159.499 100.638 L 219.179 66.1817"/><path d="M 99.8195 66.1817 L 159.499 100.638"/><path d="M 189.366 64.5486 A 30 17.3205 -0 0 0 180.713 53.9342"/><path d="M 180.713 53.9342 A 30 17.3205 -0 0 0 129.633 64.5486"/><path d="M 219.179 62.9157 L 159.499 28.4595"/><path d="M 219.179 62.9157 L 219.179 66.1817"/><path d="M 159.499 97.3719 L 219.179 62.9157"/><path d="M 159.499 97.3719 L 159.499 100.638"/><path d="M 99.8195 62.9157 L 159.499 97.3719"/><path d="M 99.8195 62.9157 L 99.8195 66.1817"/><path d="M 159.499 28.4595 L 99.8195 62.9157"/><path d="M 113.828 62.9157 A 1.53 0.883347 -0 1 0 116.888 62.9157"/><path d="M 116.888 62.9157 A 1.53 0.883347 -0 0 0 116.44 62.2911"/><path d="M 116.44 62.2911 A 1.53 0.883347 -0 0 0 113.828 62.9157"/><path d="M 202.999 62.9157 A 0.5 0.288681 -0 1 0 203.999 62.9157"/><path d="M 203.999 62.9157 A 0.5 0.288681 -0 0 0 203.853 62.7116"/><path d="M 203.853 62.7116 A 0.5 0.288681 -0 0 0 202.999 62.9157"/><path d="M 129.499 62.9164 A 30 17.3205 -0 0 0 189.499 62.915"/><path d="M 189.499 62.915 A 30 17.3205 -0 0 0 180.713 50.6682"/><path d="M 180.713 50.6682 A 30 17.3205 -0 0 0 129.499 62.9164"/><path d="M 216.718 63.2924 A 0.660004 0.381058 -0 0 0 216.267 63.2924"/><path d="M 209.646 59.2099 A 0.660004 0.381058 -0 0 0 209.196 59.2099"/><path d="M 202.575 55.1274 A 0.660004 0.381058 -0 0 0 202.125 55.1274"/><path d="M 195.504 51.0449 A 0.660004 0.381058 -0 0 0 195.054 51.0449"/><path d="M 188.433 46.9625 A 0.660004 0.381058 -0 0 0 187.983 46.9625"/><path d="M 181.362 42.88 A 0.660004 0.381058 -0 0 0 180.911 42.88"/><path d="M 174.291 38.7975 A 0.660004 0.381058 -0 0 0 173.84 38.7975"/><path d="M 167.22 34.715 A 0.660004 0.381058 -0 0 0 166.769 34.715"/><path d="M 109.803 67.8648 A 0.660004 0.381058 -0 0 0 109.352 67.8648"/><path d="M 106.267 61.2511 A 0.660004 0.381058 -0 0 0 105.817 61.2511"/><path d="M 113.339 57.1687 A 0.660004 0.381058 -0 0 0 112.888 57.1687"/><path d="M 120.41 53.0862 A 0.660004 0.381058 -0 0 0 119.959 53.0862"/><path d="M 127.481 49.0037 A 0.660004 0.381058 -0 0 0 127.03 49.0037"/><path d="M 134.552 44.9212 A 0.660004 0.381058 -0 0 0 134.101 44.9212"/><path d="M 141.623 40.8387 A 0.660004 0.381058 -0 0 0 141.172 40.8387"/><path d="M 148.694 36.7563 A 0.660004 0.381058 -0 0 0 148.243 36.7563"/><path d="M 155.765 32.6738 A 0.660004 0.381058 -0 0 0 155.314 32.6738"/><path d="M 206.111 69.906 A 0.660004 0.381058 -0 0 0 205.66 69.906"/><path d="M 213.182 65.8235 A 0.660004 0.381058 -0 0 0 212.731 65.8235"/><path d="M 160.149 30.6325 A 0.660004 0.381058 -0 0 0 159.698 30.6325"/><path d="M 102.732 63.7823 A 0.660004 0.381058 -0 0 0 102.281 63.7823"/><path d="M 199.04 73.9885 A 0.660004 0.381058 -0 0 0 198.589 73.9885"/><path d="M 191.969 78.071 A 0.660004 0.381058 -0 0 0 191.518 78.071"/><path d="M 184.898 82.1535 A 0.660004 0.381058 -0 0 0 184.447 82.1535"/><path d="M 177.827 86.236 A 0.660004 0.381058 -0 0 0 177.376 86.236"/><path d="M 170.756 90.3184 A 0.660004 0.381058 -0 0 0 170.305 90.3184"/><path d="M 163.685 94.4009 A 0.660004 0.381058 -0 0 0 163.234 94.4009"/><path d="M 116.874 71.9473 A 0.660004 0.381058 -0 0 0 116.423 71.9473"/><path d="M 123.945 76.0297 A 0.660004 0.381058 -0 0 0 123.494 76.0297"/><path d="M 131.016 80.1122 A 0.660004 0.381058 -0 0 0 130.565 80.1122"/><path d="M 138.087 84.1947 A 0.660004 0.381058 -0 0 0 137.637 84.1947"/><path d="M 145.158 88.2772 A 0.660004 0.381058 -0 0 0 144.708 88.2772"/><path d="M 152.229 92.3597 A 0.660004 0.381058 -0 0 0 151.779 92.3597"/><path d="M 159.3 96.4422 A 0.660004 0.381058 -0 0 0 158.85 96.4422"/><path d="M 215.392 62.6707 A 1.10001 0.635086 -0 1 0 217.592 62.6707"/><path d="M 217.592 62.6707 A 1.10001 0.635086 -0 0 0 217.27 62.2217"/><path d="M 217.27 62.2217 A 1.10001 0.635086 -0 0 0 215.392 62.6707"/><path d="M 208.321 58.5883 A 1.10001 0.635086 -0 1 0 210.521 58.5883"/><path d="M 210.521 58.5883 A 1.10001 0.635086 -0 0 0 210.199 58.1392"/><path d="M 210.199 58.1392 A 1.10001 0.635086 -0 0 0 208.321 58.5883"/><path d="M 201.25 54.5058 A 1.10001 0.635086 -0 1 0 203.45 54.5058"/><path d="M 203.45 54.5058 A 1.10001 0.635086 -0 0 0 203.128 54.0567"/><path d="M 203.128 54.0567 A 1.10001 0.635086 -0 0 0 201.25 54.5058"/><path d="M 194.179 50.4233 A 1.10001 0.635086 -0 1 0 196.379 50.4233"/><path d="M 196.379 50.4233 A 1.10001 0.635086 -0 0 0 196.057 49.9742"/><path d="M 196.057 49.9742 A 1.10001 0.635086 -0 0 0 194.179 50.4233"/><path d="M 187.108 46.3408 A 1.10001 0.635086 -0 1 0 189.308 46.3408"/><path d="M 189.308 46.3408 A 1.10001 0.635086 -0 0 0 188.986 45.8918"/><path d="M 188.986 45.8918 A 1.10001 0.635086 -0 0 0 187.108 46.3408"/><path d="M 180.037 42.2583 A 1.10001 0.635086 -0 1 0 182.237 42.2583"/><path d="M 182.237 42.2583 A 1.10001 0.635086 -0 0 0 181.915 41.8093"/><path d="M 181.915 41.8093 A 1.10001 0.635086 -0 0 0 180.037 42.2583"/><path d="M 172.966 38.1759 A 1.10001 0.635086 -0 1 0 175.166 38.1759"/><path d="M 175.166 38.1759 A 1.10001 0.635086 -0 0 0 174.844 37.7268"/><path d="M 174.844 37.7268 A 1.10001 0.635086 -0 0 0 172.966 38.1759"/><path d="M 165.895 34.0934 A 1.10001 0.635086 -0 1 0 168.095 34.0934"/><path d="M 168.095 34.0934 A 1.10001 0.635086 -0 0 0 167.773 33.6443"/><path d="M 167.773 33.6443 A 1.10001 0.635086 -0 0 0 165.895 34.0934"/><path d="M 108.478 67.2431 A 1.10001 0.635086 -0 1 0 110.678 67.2431"/><path d="M 110.678 67.2431 A 1.10001 0.635086 -0 0 0 110.355 66.7941"/><path d="M 110.355 66.7941 A 1.10001 0.635086 -0 0 0 108.478 67.2431"/><path d="M 104.942 60.6295 A 1.10001 0.635086 -0 1 0 107.142 60.6295"/><path d="M 107.142 60.6295 A 1.10001 0.635086 -0 0 0 106.82 60.1804"/><path d="M 106.82 60.1804 A 1.10001 0.635086 -0 0 0 104.942 60.6295"/><path d="M 112.013 56.547 A 1.10001 0.635086 -0 1 0 114.213 56.547"/><path d="M 114.213 56.547 A 1.10001 0.635086 -0 0 0 113.891 56.098"/><path d="M 113.891 56.098 A 1.10001 0.635086 -0 0 0 112.013 56.547"/><path d="M 119.084 52.4645 A 1.10001 0.635086 -0 1 0 121.284 52.4645"/><path d="M 121.284 52.4645 A 1.10001 0.635086 -0 0 0 120.962 52.0155"/><path d="M 120.962 52.0155 A 1.10001 0.635086 -0 0 0 119.084 52.4645"/><path d="M 126.155 48.3821 A 1.10001 0.635086 -0 1 0 128.355 48.3821"/><path d="M 128.355 48.3821 A 1.10001 0.635086 -0 0 0 128.033 47.933"/><path d="M 128.033 47.933 A 1.10001 0.635086 -0 0 0 126.155 48.3821"/><path d="M 133.226 44.2996 A 1.10001 0.635086 -0 1 0 135.426 44.2996"/><path d="M 135.426 44.2996 A 1.10001 0.635086 -0 0 0 135.104 43.8505"/><path d="M 135.104 43.8505 A 1.10001 0.635086 -0 0 0 133.226 44.2996"/><path d="M 140.297 40.2171 A 1.10001 0.635086 -0 1 0 142.497 40.2171"/><path d="M 142.497 40.2171 A 1.10001 0.635086 -0 0 0 142.175 39.768"/><path d="M 142.175 39.768 A 1.10001 0.635086 -0 0 0 140.297 40.2171"/><path d="M 147.368 36.1346 A 1.10001 0.635086 -0 1 0 149.568 36.1346"/><path d="M 149.568 36.1346 A 1.10001 0.635086 -0 0 0 149.246 35.6855"/><path d="M 149.246 35.6855 A 1.10001 0.635086 -0 0 0 147.368 36.1346"/><path d="M 154.44 32.0521 A 1.10001 0.635086 -0 1 0 156.64 32.0521"/><path d="M 156.64 32.0521 A 1.10001 0.635086 -0 0 0 156.317 31.6031"/><path d="M 156.317 31.6031 A 1.10001 0.635086 -0 0 0 154.44 32.0521"/><path d="M 204.786 69.2844 A 1.10001 0.635086 -0 1 0 206.986 69.2844"/><path d="M 206.986 69.2844 A 1.10001 0.635086 -0 0 0 206.663 68.8353"/><path d="M 206.663 68.8353 A 1.10001 0.635086 -0 0 0 204.786 69.2844"/><path d="M 211.857 65.2019 A 1.10001 0.635086 -0 1 0 214.057 65.2019"/><path d="M 214.057 65.2019 A 1.10001 0.635086 -0 0 0 213.734 64.7528"/><path d="M 213.734 64.7528 A 1.10001 0.635086 -0 0 0 211.857 65.2019"/><path d="M 158.824 30.0109 A 1.10001 0.635086 -0 1 0 161.024 30.0109"/><path d="M 161.024 30.0109 A 1.10001 0.635086 -0 0 0 160.701 29.5618"/><path d="M 160.701 29.5618 A 1.10001 0.635086 -0 0 0 158.824 30.0109"/><path d="M 101.407 63.1606 A 1.10001 0.635086 -0 1 0 103.607 63.1606"/><path d="M 103.607 63.1606 A 1.10001 0.635086 -0 0 0 103.284 62.7116"/><path d="M 103.284 62.7116 A 1.10001 0.635086 -0 0 0 101.407 63.1606"/><path d="M 197.714 73.3669 A 1.10001 0.635086 -0 1 0 199.915 73.3669"/><path d="M 199.915 73.3669 A 1.10001 0.635086 -0 0 0 199.592 72.9178"/><path d="M 199.592 72.9178 A 1.10001 0.635086 -0 0 0 197.714 73.3669"/><path d="M 190.643 77.4493 A 1.10001 0.635086 -0 1 0 192.843 77.4493"/><path d="M 192.843 77.4493 A 1.10001 0.635086 -0 0 0 192.521 77.0003"/><path d="M 192.521 77.0003 A 1.10001 0.635086 -0 0 0 190.643 77.4493"/><path d="M 183.572 81.5318 A 1.10001 0.635086 -0 1 0 185.772 81.5318"/><path d="M 185.772 81.5318 A 1.10001 0.635086 -0 0 0 185.45 81.0828"/><path d="M 185.45 81.0828 A 1.10001 0.635086 -0 0 0 183.572 81.5318"/><path d="M 176.501 85.6143 A 1.10001 0.635086 -0 1 0 178.701 85.6143"/><path d="M 178.701 85.6143 A 1.10001 0.635086 -0 0 0 178.379 85.1652"/><path d="M 178.379 85.1652 A 1.10001 0.635086 -0 0 0 176.501 85.6143"/><path d="M 169.43 89.6968 A 1.10001 0.635086 -0 1 0 171.63 89.6968"/><path d="M 171.63 89.6968 A 1.10001 0.635086 -0 0 0 171.308 89.2477"/><path d="M 171.308 89.2477 A 1.10001 0.635086 -0 0 0 169.43 89.6968"/><path d="M 162.359 93.7793 A 1.10001 0.635086 -0 1 0 164.559 93.7793"/><path d="M 164.559 93.7793 A 1.10001 0.635086 -0 0 0 164.237 93.3302"/><path d="M 164.237 93.3302 A 1.10001 0.635086 -0 0 0 162.359 93.7793"/><path d="M 115.549 71.3256 A 1.10001 0.635086 -0 1 0 117.749 71.3256"/><path d="M 117.749 71.3256 A 1.10001 0.635086 -0 0 0 117.427 70.8766"/><path d="M 117.427 70.8766 A 1.10001 0.635086 -0 0 0 115.549 71.3256"/><path d="M 122.62 75.4081 A 1.10001 0.635086 -0 1 0 124.82 75.4081"/><path d="M 124.82 75.4081 A 1.10001 0.635086 -0 0 0 124.498 74.959"/><path d="M 124.498 74.959 A 1.10001 0.635086 -0 0 0 122.62 75.4081"/><path d="M 129.691 79.4906 A 1.10001 0.635086 -0 1 0 131.891 79.4906"/><path d="M 131.891 79.4906 A 1.10001 0.635086 -0 0 0 131.569 79.0415"/><path d="M 131.569 79.0415 A 1.10001 0.635086 -0 0 0 129.691 79.4906"/><path d="M 136.762 83.5731 A 1.10001 0.635086 -0 1 0 138.962 83.5731"/><path d="M 138.962 83.5731 A 1.10001 0.635086 -0 0 0 138.64 83.124"/><path d="M 138.64 83.124 A 1.10001 0.635086 -0 0 0 136.762 83.5731"/><path d="M 143.833 87.6556 A 1.10001 0.635086 -0 1 0 146.033 87.6556"/><path d="M 146.033 87.6556 A 1.10001 0.635086 -0 0 0 145.711 87.2065"/><path d="M 145.711 87.2065 A 1.10001 0.635086 -0 0 0 143.833 87.6556"/><path d="M 150.904 91.738 A 1.10001 0.635086 -0 1 0 153.104 91.738"/><path d="M 153.104 91.738 A 1.10001 0.635086 -0 0 0 152.782 91.289"/><path d="M 152.782 91.289 A 1.10001 0.635086 -0 0 0 150.904 91.738"/><path d="M 157.975 95.8205 A 1.10001 0.635086 -0 1 0 160.175 95.8205"/><path d="M 160.175 95.8205 A 1.10001 0.635086 -0 0 0 159.853 95.3714"/><path d="M 159.853 95.3714 A 1.10001 0.635086 -0 0 0 157.975 95.8205"/><path d="M 217.192 63.1606 A 1.10001 0.635086 -0 0 0 215.792 63.1607"/><path d="M 210.121 59.0781 A 1.10001 0.635086 -0 0 0 208.721 59.0782"/><path d="M 203.05 54.9956 A 1.10001 0.635086 -0 0 0 201.65 54.9957"/><path d="M 195.979 50.9131 A 1.10001 0.635086 -0 0 0 194.579 50.9132"/><path d="M 188.908 46.8307 A 1.10001 0.635086 -0 0 0 187.508 46.8307"/><path d="M 181.837 42.7482 A 1.10001 0.635086 -0 0 0 180.437 42.7483"/><path d="M 174.766 38.6657 A 1.10001 0.635086 -0 0 0 173.366 38.6658"/><path d="M 167.695 34.5832 A 1.10001 0.635086 -0 0 0 166.295 34.5833"/><path d="M 110.278 67.733 A 1.10001 0.635086 -0 0 0 108.878 67.7331"/><path d="M 106.742 61.1193 A 1.10001 0.635086 -0 0 0 105.342 61.1194"/><path d="M 113.813 57.0369 A 1.10001 0.635086 -0 0 0 112.413 57.037"/><path d="M 120.884 52.9544 A 1.10001 0.635086 -0 0 0 119.484 52.9545"/><path d="M 127.955 48.8719 A 1.10001 0.635086 -0 0 0 126.555 48.872"/><path d="M 135.026 44.7894 A 1.10001 0.635086 -0 0 0 133.626 44.7895"/><path d="M 142.097 40.7069 A 1.10001 0.635086 -0 0 0 140.697 40.707"/><path d="M 149.168 36.6245 A 1.10001 0.635086 -0 0 0 147.768 36.6245"/><path d="M 156.239 32.542 A 1.10001 0.635086 -0 0 0 154.839 32.5421"/><path d="M 206.585 69.7742 A 1.10001 0.635086 -0 0 0 205.185 69.7743"/><path d="M 213.657 65.6917 A 1.10001 0.635086 -0 0 0 212.257 65.6918"/><path d="M 160.624 30.5007 A 1.10001 0.635086 -0 0 0 159.224 30.5008"/><path d="M 103.206 63.6505 A 1.10001 0.635086 -0 0 0 101.806 63.6506"/><path d="M 199.514 73.8567 A 1.10001 0.635086 -0 0 0 198.114 73.8568"/><path d="M 192.443 77.9392 A 1.10001 0.635086 -0 0 0 191.043 77.9393"/><path d="M 185.372 82.0217 A 1.10001 0.635086 -0 0 0 183.972 82.0218"/><path d="M 178.301 86.1042 A 1.10001 0.635086 -0 0 0 176.901 86.1042"/><path d="M 171.23 90.1866 A 1.10001 0.635086 -0 0 0 169.83 90.1867"/><path d="M 164.159 94.2691 A 1.10001 0.635086 -0 0 0 162.759 94.2692"/><path d="M 117.349 71.8155 A 1.10001 0.635086 -0 0 0 115.949 71.8156"/><path d="M 124.42 75.8979 A 1.10001 0.635086 -0 0 0 123.02 75.898"/><path d="M 131.491 79.9804 A 1.10001 0.635086 -0 0 0 130.091 79.9805"/><path d="M 138.562 84.0629 A 1.10001 0.635086 -0 0 0 137.162 84.063"/><path d="M 145.633 88.1454 A 1.10001 0.635086 -0 0 0 144.233 88.1455"/><path d="M 152.704 92.2279 A 1.10001 0.635086 -0 0 0 151.304 92.228"/><path d="M 159.775 96.3104 A 1.10001 0.635086 -0 0 0 158.375 96.3104"/><path d="M 200.861 124.191 L 173.716 108.519"/><path d="M 216.351 67.8147 L 216.351 133.134"/><path d="M 178.036 53.0243 A 0.5 0.288681 -120 1 0 178.536 53.8904"/><path d="M 178.536 53.8904 A 0.5 0.288681 -120 0 0 178.286 53.0491"/><path d="M 178.286 53.0491 A 0.5 0.288681 -120 0 0 178.036 53.0243"/><path d="M 168.901 55.0313 A 0.5 0.288681 -120 1 0 169.401 55.8974"/><path d="M 169.401 55.8974 A 0.5 0.288681 -120 0 0 169.151 55.0561"/><path d="M 169.151 55.0561 A 0.5 0.288681 -120 0 0 168.901 55.0313"/><path d="M 163.742 63.4029 A 0.5 0.288681 -120 0 0 164.242 64.2689"/><path d="M 164.242 64.2689 A 0.5 0.288681 -120 0 0 163.992 63.4276"/><path d="M 163.992 63.4276 A 0.5 0.288681 -120 0 0 163.742 63.4029"/><path d="M 163.742 76.2211 A 0.5 0.288681 -120 1 0 164.242 77.0872"/><path d="M 164.242 77.0872 A 0.5 0.288681 -120 0 0 163.992 76.2459"/><path d="M 163.992 76.2459 A 0.5 0.288681 -120 0 0 163.742 76.2211"/><path d="M 178.036 103.106 A 0.5 0.288681 -120 1 0 178.536 103.972"/><path d="M 178.536 103.972 A 0.5 0.288681 -120 0 0 178.286 103.131"/><path d="M 178.286 103.131 A 0.5 0.288681 -120 0 0 178.036 103.106"/><path d="M 189.056 111.013 A 0.5 0.288681 -120 0 0 189.556 111.879"/><path d="M 189.556 111.879 A 0.5 0.288681 -120 0 0 189.306 111.038"/><path d="M 189.306 111.038 A 0.5 0.288681 -120 0 0 189.056 111.013"/><path d="M 199.436 112.461 A 0.5 0.288681 -120 1 0 199.936 113.327"/><path d="M 199.936 113.327 A 0.5 0.288681 -120 0 0 199.686 112.485"/><path d="M 199.686 112.485 A 0.5 0.288681 -120 0 0 199.436 112.461"/><path d="M 206.797 107.116 A 0.5 0.288681 -120 0 0 207.182 108.004"/><path d="M 207.287 107.387 A 0.5 0.288681 -120 0 0 207.047 107.141"/><path d="M 207.047 107.141 A 0.5 0.288681 -120 0 0 206.797 107.116"/><path d="M 186.678 58.8488 A 30 17.3205 -300 0 0 171.511 57.2654"/><path d="M 201.51 109.228 A 30 17.3205 -300 0 0 207.51 98.8423"/><path d="M 186.511 107.741 A 30 17.3205 -300 0 0 201.51 109.228"/><path d="M 178.487 101.289 A 30 17.3205 -300 0 0 186.511 107.741"/><path d="M 171.511 57.2654 A 30 17.3205 -300 0 0 166.484 79.7604"/><path d="M 203.621 110.596 A 0.5 0.288681 -120 1 0 204.121 111.462"/><path d="M 204.121 111.462 A 0.5 0.288681 -120 0 0 203.871 110.62"/><path d="M 203.871 110.62 A 0.5 0.288681 -120 0 0 203.621 110.596"/><path d="M 194.485 112.603 A 0.5 0.288681 -120 0 0 194.985 113.469"/><path d="M 194.985 113.469 A 0.5 0.288681 -120 0 0 194.735 112.627"/><path d="M 194.735 112.627 A 0.5 0.288681 -120 0 0 194.485 112.603"/><path d="M 183.465 107.785 A 0.5 0.288681 -120 1 0 183.965 108.651"/><path d="M 183.965 108.651 A 0.5 0.288681 -120 0 0 183.715 107.81"/><path d="M 183.715 107.81 A 0.5 0.288681 -120 0 0 183.465 107.785"/><path d="M 163.068 69.4229 A 0.5 0.288681 -120 1 0 163.568 70.2889"/><path d="M 163.568 70.2889 A 0.5 0.288681 -120 0 0 163.318 69.4477"/><path d="M 163.318 69.4477 A 0.5 0.288681 -120 0 0 163.068 69.4229"/><path d="M 165.724 58.5109 A 0.5 0.288681 -120 1 0 166.224 59.3769"/><path d="M 166.224 59.3769 A 0.5 0.288681 -120 0 0 165.974 58.5357"/><path d="M 165.974 58.5357 A 0.5 0.288681 -120 0 0 165.724 58.5109"/><path d="M 173.086 53.1664 A 0.5 0.288681 -120 1 0 173.586 54.0324"/><path d="M 173.586 54.0324 A 0.5 0.288681 -120 0 0 173.336 53.1911"/><path d="M 173.336 53.1911 A 0.5 0.288681 -120 0 0 173.086 53.1664"/><path d="M 219.179 66.1817 L 216.351 67.8147"/><path d="M 219.179 131.501 L 216.351 133.134"/><path d="M 219.179 66.1817 L 219.179 131.501"/><path d="M 189.339 106.108 A 30 17.3205 -300 0 0 202.858 108.295"/><path d="M 180.558 98.8416 A 30 17.3205 -300 0 0 189.339 106.108"/><path d="M 172.992 56.5649 A 30 17.3205 -300 0 0 169.61 79.2229"/></g><g stroke="rgb(128, 0, 255)" stroke-width="0.13" stroke-linecap="butt" stroke-linejoin="miter" fill="none"><path d="M 110.477 158.457 L 110.87 158.684 L 111.304 157.933 L 111.737 158.182 L 111.938 157.833 L 111.506 157.583 L 112.583 155.718 L 112.185 155.489 L 109.801 156.552 L 109.579 156.937 L 110.911 157.706 L 110.477 158.457 L 110.477 158.457 z M 110.148 156.799 L 111.897 155.998 L 111.113 157.356 L 110.148 156.799 L 110.148 156.799 z M 112.407 159.571 L 114.49 160.774 L 114.707 160.398 L 113.061 159.448 L 113.271 159.295 L 113.526 159.216 L 114.19 159.185 L 114.523 159.203 L 114.92 159.182 L 115.252 159.082 L 115.518 158.892 L 115.731 158.625 L 115.868 158.215 L 115.83 157.808 L 115.621 157.443 L 115.253 157.143 L 114.791 156.976 L 114.353 156.997 L 113.959 157.206 L 113.639 157.598 L 113.604 157.659 L 114.001 157.889 L 114.022 157.854 L 114.232 157.579 L 114.476 157.429 L 114.745 157.398 L 115.022 157.493 L 115.25 157.683 L 115.374 157.901 L 115.398 158.142 L 115.318 158.381 L 115.172 158.564 L 114.991 158.687 L 114.765 158.755 L 114.497 158.775 L 114.159 158.766 L 113.575 158.789 L 113.107 158.904 L 112.726 159.15 L 112.414 159.558 L 112.407 159.571 L 112.407 159.571 z M 115.642 161.439 L 117.726 162.642 L 117.943 162.266 L 116.296 161.316 L 116.506 161.163 L 116.762 161.084 L 117.426 161.053 L 117.759 161.071 L 118.156 161.05 L 118.487 160.95 L 118.754 160.76 L 118.966 160.493 L 119.104 160.083 L 119.065 159.676 L 118.857 159.311 L 118.488 159.011 L 118.026 158.844 L 117.589 158.865 L 117.194 159.074 L 116.875 159.466 L 116.839 159.527 L 117.237 159.757 L 117.257 159.722 L 117.468 159.447 L 117.712 159.297 L 117.98 159.266 L 118.257 159.361 L 118.485 159.551 L 118.61 159.769 L 118.634 160.01 L 118.554 160.249 L 118.407 160.432 L 118.226 160.555 L 118.001 160.623 L 117.733 160.643 L 117.394 160.634 L 116.81 160.657 L 116.342 160.772 L 115.961 161.018 L 115.65 161.426 L 115.642 161.439 L 115.642 161.439 z" stroke="none" fill-rule="evenodd" fill="rgb(128, 0, 255)"/></g><g stroke="rgb(128, 0, 255)" stroke-width="1" stroke-linecap="butt" stroke-linejoin="miter" fill="none"><path d="M 84.5645 145.208 L 82.6327 144.69 L 84.0469 146.104"/><path d="M 140.381 178.629 L 142.313 179.146 L 140.898 177.732"/></g><g stroke="rgb(128, 0, 255)" stroke-width="0.35" stroke-linecap="butt" stroke-linejoin="miter" fill="none"><path d="M 82.6327 144.69 L 142.313 179.146"/></g><g stroke="rgb(128, 0, 255)" stroke-width="0.13" stroke-linecap="butt" stroke-linejoin="miter" fill="none"><path d="M 163.433 185.576 L 163.433 185.122 L 162.566 185.122 L 162.566 184.622 L 162.162 184.622 L 162.162 185.122 L 160.009 185.122 L 160.009 185.581 L 162.122 187.114 L 162.566 187.114 L 162.566 185.576 L 163.433 185.576 L 163.433 185.576 z M 162.162 186.69 L 160.594 185.576 L 162.162 185.576 L 162.162 186.69 L 162.162 186.69 z M 161.723 183.332 L 162.515 183.257 L 163.08 183.02 L 163.423 182.641 L 163.534 182.117 L 163.423 181.597 L 163.08 181.219 L 162.515 180.987 L 161.723 180.907 L 160.937 180.987 L 160.624 181.083 L 160.367 181.219 L 160.024 181.597 L 159.908 182.117 L 160.024 182.641 L 160.372 183.02 L 160.937 183.257 L 161.723 183.332 L 161.723 183.332 z M 161.723 182.848 L 161.113 182.808 L 160.674 182.682 L 160.417 182.455 L 160.327 182.117 L 160.417 181.784 L 160.674 181.557 L 161.113 181.431 L 161.723 181.391 L 162.339 181.431 L 162.778 181.557 L 163.035 181.784 L 163.12 182.117 L 163.035 182.455 L 162.778 182.682 L 162.339 182.808 L 161.723 182.848 L 161.723 182.848 z M 161.723 179.596 L 162.515 179.521 L 163.08 179.284 L 163.423 178.905 L 163.534 178.381 L 163.423 177.861 L 163.08 177.483 L 162.515 177.251 L 161.723 177.171 L 160.937 177.251 L 160.624 177.347 L 160.367 177.483 L 160.024 177.861 L 159.908 178.381 L 160.024 178.905 L 160.372 179.284 L 160.937 179.521 L 161.723 179.596 L 161.723 179.596 z M 161.723 179.112 L 161.113 179.072 L 160.674 178.946 L 160.417 178.719 L 160.327 178.381 L 160.417 178.048 L 160.674 177.821 L 161.113 177.695 L 161.723 177.655 L 162.339 177.695 L 162.778 177.821 L 163.035 178.048 L 163.12 178.381 L 163.035 178.719 L 162.778 178.946 L 162.339 179.072 L 161.723 179.112 L 161.723 179.112 z" stroke="none" fill-rule="evenodd" fill="rgb(128, 0, 255)"/></g><g stroke="rgb(128, 0, 255)" stroke-width="1" stroke-linecap="butt" stroke-linejoin="miter" fill="none"><path d="M 165.951 99.1438 L 165.433 97.212 L 164.915 99.1438"/><path d="M 164.915 160.6 L 165.433 162.532 L 165.951 160.6"/></g><g stroke="rgb(128, 0, 255)" stroke-width="0.35" stroke-linecap="butt" stroke-linejoin="miter" fill="none"><path d="M 165.433 187.371 L 165.433 97.212"/></g><g stroke="rgb(128, 0, 255)" stroke-width="0.13" stroke-linecap="butt" stroke-linejoin="miter" fill="none"><path d="M 203.191 40.3261 L 203.205 40.3584 L 203.474 40.7692 L 203.837 41.0062 L 204.272 41.0684 L 204.759 40.948 L 205.204 40.6585 L 205.475 40.2971 L 205.564 39.8724 L 205.465 39.4204 L 205.308 39.1642 L 205.109 38.9872 L 204.868 38.8895 L 204.591 38.8622 L 204.782 38.481 L 204.713 38.0373 L 204.486 37.7076 L 204.168 37.5224 L 203.769 37.4937 L 203.3 37.6285 L 202.917 37.885 L 202.687 38.2281 L 202.622 38.6426 L 202.741 39.1025 L 202.755 39.1348 L 203.166 38.9542 L 203.073 38.6425 L 203.1 38.3773 L 203.237 38.1628 L 203.489 37.9969 L 203.746 37.9283 L 203.964 37.9482 L 204.139 38.0585 L 204.274 38.2526 L 204.332 38.4971 L 204.288 38.6981 L 204.134 38.8757 L 203.883 39.0191 L 203.701 39.0936 L 203.862 39.4583 L 204.084 39.3497 L 204.393 39.2634 L 204.659 39.2788 L 204.867 39.402 L 205.017 39.6172 L 205.084 39.9073 L 205.037 40.1647 L 204.879 40.3827 L 204.616 40.548 L 204.305 40.6297 L 204.032 40.5845 L 203.8 40.4218 L 203.616 40.1394 L 203.191 40.3261 L 203.191 40.3261 z M 206.416 38.2418 L 206.804 38.9362 L 207.248 39.358 L 207.733 39.5197 L 208.258 39.4102 L 208.688 39.0996 L 208.897 38.6335 L 208.882 38.023 L 208.637 37.2657 L 208.247 36.5779 L 208.033 36.3302 L 207.805 36.1496 L 207.321 35.9878 L 206.798 36.0907 L 206.365 36.4079 L 206.159 36.8787 L 206.169 37.4911 L 206.416 38.2418 L 206.416 38.2418 z M 206.86 38.047 L 206.651 37.4721 L 206.59 37.0197 L 206.694 36.6929 L 206.967 36.4739 L 207.308 36.423 L 207.619 36.5672 L 207.911 36.9181 L 208.194 37.4605 L 208.404 38.04 L 208.466 38.4924 L 208.361 38.8192 L 208.091 39.0316 L 207.747 39.0891 L 207.436 38.945 L 207.144 38.594 L 206.86 38.047 L 206.86 38.047 z M 209.837 36.7385 L 210.224 37.4329 L 210.669 37.8546 L 211.153 38.0164 L 211.678 37.9069 L 212.109 37.5963 L 212.317 37.1302 L 212.302 36.5197 L 212.057 35.7624 L 211.667 35.0746 L 211.453 34.8269 L 211.225 34.6463 L 210.741 34.4845 L 210.219 34.5873 L 209.785 34.9046 L 209.579 35.3754 L 209.589 35.9878 L 209.837 36.7385 L 209.837 36.7385 z M 210.28 36.5437 L 210.071 35.9688 L 210.01 35.5164 L 210.114 35.1896 L 210.387 34.9706 L 210.728 34.9197 L 211.04 35.0639 L 211.332 35.4148 L 211.614 35.9572 L 211.825 36.5367 L 211.886 36.9891 L 211.782 37.3159 L 211.511 37.5283 L 211.167 37.5858 L 210.856 37.4417 L 210.564 37.0907 L 210.28 36.5437 L 210.28 36.5437 z" stroke="none" fill-rule="evenodd" fill="rgb(128, 0, 255)"/></g><g stroke="rgb(128, 0, 255)" stroke-width="0.13" stroke-linecap="butt" stroke-linejoin="miter" fill="none"><path d="M 200.996 42.4916 L 200.229 39.0058"/><path d="M 201.787 40.2323 L 201.74 40.1255 M 201.74 40.1255 L 201.593 39.9354 M 201.593 39.9354 L 201.469 39.7986 M 201.469 39.7986 L 201.369 39.7153 M 201.369 39.7153 L 201.192 39.602 M 201.192 39.602 L 200.961 39.5123 M 200.961 39.5123 L 200.754 39.4759 M 200.754 39.4759 L 200.624 39.4694 M 200.624 39.4694 L 200.44 39.4864 M 200.44 39.4864 L 200.203 39.5269 M 200.203 39.5269 L 200.096 39.5739 M 200.096 39.5739 L 199.989 39.6208 M 199.989 39.6208 L 199.799 39.7681 M 199.799 39.7681 L 199.662 39.8919 M 199.662 39.8919 L 199.579 39.9923 M 199.579 39.9923 L 199.466 40.1695 M 199.466 40.1695 L 199.376 40.4001 M 199.376 40.4001 L 199.34 40.6073 M 199.34 40.6073 L 199.333 40.7375 M 199.333 40.7375 L 199.35 40.9212 M 199.35 40.9212 L 199.391 41.1583 M 199.391 41.1583 L 199.438 41.2651 M 199.438 41.2651 L 199.485 41.3719 M 199.485 41.3719 L 199.632 41.562 M 199.632 41.562 L 199.756 41.6988 M 199.756 41.6988 L 199.856 41.7821 M 199.856 41.7821 L 200.033 41.8954 M 200.033 41.8954 L 200.264 41.9852 M 200.264 41.9852 L 200.471 42.0215 M 200.471 42.0215 L 200.601 42.028 M 200.601 42.028 L 200.785 42.011 M 200.785 42.011 L 201.022 41.9705 M 201.022 41.9705 L 201.129 41.9236 M 201.129 41.9236 L 201.236 41.8766 M 201.236 41.8766 L 201.426 41.7293 M 201.426 41.7293 L 201.563 41.6055 M 201.563 41.6055 L 201.646 41.5052 M 201.646 41.5052 L 201.759 41.3279 M 201.759 41.3279 L 201.849 41.0973 M 201.849 41.0973 L 201.885 40.8902 M 201.885 40.8902 L 201.892 40.7599 M 201.892 40.7599 L 201.875 40.5762 M 201.875 40.5762 L 201.834 40.3391 M 201.834 40.3391 L 201.787 40.2323"/></g><g stroke="rgb(128, 0, 255)" stroke-width="1" stroke-linecap="butt" stroke-linejoin="miter" fill="none"><path d="M 137.19 72.1562 L 135.629 73.4074 L 137.606 73.1039"/><path d="M 181.809 53.6752 L 183.369 52.424 L 181.392 52.7275"/></g><g stroke="rgb(128, 0, 255)" stroke-width="0.35" stroke-linecap="butt" stroke-linejoin="miter" fill="none"><path d="M 135.629 73.4074 L 213.832 39.0347"/></g></svg>